<svg width="488" height="990" viewBox="0 0 488 990" fill="none" xmlns="http://www.w3.org/2000/svg">
<rect width="488" height="990" fill="#F98419"/>
<path d="M130.268 446H128.572V436.457H117.197V446H115.516V426.094H117.197V435.035H128.572V426.094H130.268V446ZM134.055 438.385C134.055 436.963 134.328 435.682 134.875 434.543C135.431 433.404 136.21 432.52 137.213 431.891C138.225 431.253 139.368 430.934 140.645 430.934C142.613 430.934 144.208 431.626 145.43 433.012C146.651 434.388 147.262 436.215 147.262 438.494V438.836C147.262 440.267 146.984 441.557 146.428 442.705C145.881 443.844 145.106 444.724 144.104 445.344C143.101 445.964 141.957 446.273 140.672 446.273C138.712 446.273 137.117 445.585 135.887 444.209C134.665 442.824 134.055 440.992 134.055 438.713V438.385ZM135.695 438.836C135.695 440.604 136.151 442.058 137.062 443.197C137.983 444.327 139.186 444.893 140.672 444.893C142.148 444.893 143.342 444.327 144.254 443.197C145.174 442.058 145.635 440.559 145.635 438.699V438.385C145.635 437.255 145.425 436.22 145.006 435.281C144.587 434.342 143.999 433.618 143.242 433.107C142.486 432.588 141.62 432.328 140.645 432.328C139.186 432.328 137.997 432.902 137.076 434.051C136.156 435.19 135.695 436.685 135.695 438.535V438.836ZM157.488 432.602C157.142 432.538 156.773 432.506 156.381 432.506C155.36 432.506 154.494 432.793 153.783 433.367C153.081 433.932 152.58 434.757 152.279 435.842V446H150.652V431.207H152.252L152.279 433.559C153.145 431.809 154.535 430.934 156.449 430.934C156.905 430.934 157.265 430.993 157.529 431.111L157.488 432.602ZM168.877 446C168.713 445.535 168.608 444.847 168.562 443.936C167.988 444.683 167.255 445.262 166.361 445.672C165.477 446.073 164.538 446.273 163.545 446.273C162.123 446.273 160.97 445.877 160.086 445.084C159.211 444.291 158.773 443.288 158.773 442.076C158.773 440.636 159.37 439.497 160.564 438.658C161.768 437.82 163.44 437.4 165.582 437.4H168.549V435.719C168.549 434.661 168.221 433.832 167.564 433.23C166.917 432.62 165.969 432.314 164.721 432.314C163.581 432.314 162.638 432.606 161.891 433.189C161.143 433.773 160.77 434.475 160.77 435.295L159.129 435.281C159.129 434.105 159.676 433.089 160.77 432.232C161.863 431.367 163.208 430.934 164.803 430.934C166.452 430.934 167.751 431.348 168.699 432.178C169.656 432.998 170.148 434.146 170.176 435.623V442.623C170.176 444.054 170.326 445.125 170.627 445.836V446H168.877ZM163.736 444.824C164.83 444.824 165.805 444.56 166.662 444.031C167.528 443.503 168.157 442.796 168.549 441.912V438.658H165.623C163.992 438.676 162.715 438.977 161.795 439.561C160.874 440.135 160.414 440.928 160.414 441.939C160.414 442.769 160.719 443.457 161.33 444.004C161.95 444.551 162.752 444.824 163.736 444.824ZM192.833 438.467C192.833 436.17 193.344 434.342 194.365 432.984C195.395 431.617 196.789 430.934 198.548 430.934C200.544 430.934 202.066 431.722 203.115 433.299V425H204.742V446H203.21L203.142 444.031C202.094 445.526 200.553 446.273 198.521 446.273C196.816 446.273 195.44 445.59 194.392 444.223C193.353 442.846 192.833 440.992 192.833 438.658V438.467ZM194.488 438.754C194.488 440.641 194.866 442.131 195.622 443.225C196.379 444.309 197.445 444.852 198.822 444.852C200.836 444.852 202.267 443.963 203.115 442.186V435.24C202.267 433.317 200.845 432.355 198.849 432.355C197.473 432.355 196.402 432.898 195.636 433.982C194.87 435.058 194.488 436.648 194.488 438.754ZM214.777 446.273C213.519 446.273 212.38 445.964 211.359 445.344C210.347 444.724 209.559 443.863 208.993 442.76C208.428 441.648 208.146 440.404 208.146 439.027V438.439C208.146 437.018 208.419 435.737 208.966 434.598C209.522 433.458 210.292 432.565 211.277 431.918C212.261 431.262 213.327 430.934 214.476 430.934C216.271 430.934 217.693 431.549 218.742 432.779C219.799 434.001 220.327 435.673 220.327 437.797V438.713H209.773V439.027C209.773 440.704 210.251 442.104 211.208 443.225C212.174 444.337 213.387 444.893 214.845 444.893C215.72 444.893 216.49 444.733 217.156 444.414C217.83 444.095 218.441 443.585 218.988 442.883L220.013 443.662C218.81 445.403 217.064 446.273 214.777 446.273ZM214.476 432.328C213.245 432.328 212.206 432.779 211.359 433.682C210.52 434.584 210.01 435.796 209.827 437.318H218.701V437.141C218.655 435.719 218.249 434.561 217.484 433.668C216.718 432.775 215.715 432.328 214.476 432.328ZM247.921 444.893C249.06 444.893 250.012 444.574 250.778 443.936C251.553 443.288 251.972 442.454 252.036 441.434H253.608C253.563 442.336 253.28 443.161 252.76 443.908C252.241 444.646 251.548 445.225 250.682 445.645C249.826 446.064 248.905 446.273 247.921 446.273C245.979 446.273 244.439 445.599 243.299 444.25C242.169 442.901 241.604 441.087 241.604 438.809V438.316C241.604 436.858 241.859 435.568 242.37 434.447C242.88 433.326 243.609 432.46 244.557 431.85C245.514 431.239 246.631 430.934 247.907 430.934C249.529 430.934 250.865 431.417 251.913 432.383C252.97 433.349 253.535 434.62 253.608 436.197H252.036C251.963 435.04 251.544 434.105 250.778 433.395C250.021 432.684 249.064 432.328 247.907 432.328C246.43 432.328 245.282 432.861 244.462 433.928C243.65 434.994 243.245 436.489 243.245 438.412V438.891C243.245 440.777 243.65 442.249 244.462 443.307C245.282 444.364 246.435 444.893 247.921 444.893ZM266.227 446C266.063 445.535 265.958 444.847 265.913 443.936C265.339 444.683 264.605 445.262 263.712 445.672C262.827 446.073 261.889 446.273 260.895 446.273C259.473 446.273 258.32 445.877 257.436 445.084C256.561 444.291 256.124 443.288 256.124 442.076C256.124 440.636 256.721 439.497 257.915 438.658C259.118 437.82 260.79 437.4 262.932 437.4H265.899V435.719C265.899 434.661 265.571 433.832 264.915 433.23C264.268 432.62 263.32 432.314 262.071 432.314C260.932 432.314 259.988 432.606 259.241 433.189C258.493 433.773 258.12 434.475 258.12 435.295L256.479 435.281C256.479 434.105 257.026 433.089 258.12 432.232C259.214 431.367 260.558 430.934 262.153 430.934C263.803 430.934 265.102 431.348 266.049 432.178C267.007 432.998 267.499 434.146 267.526 435.623V442.623C267.526 444.054 267.676 445.125 267.977 445.836V446H266.227ZM261.087 444.824C262.18 444.824 263.156 444.56 264.012 444.031C264.878 443.503 265.507 442.796 265.899 441.912V438.658H262.973C261.342 438.676 260.066 438.977 259.145 439.561C258.225 440.135 257.764 440.928 257.764 441.939C257.764 442.769 258.07 443.457 258.68 444.004C259.3 444.551 260.102 444.824 261.087 444.824ZM271.245 438.467C271.245 436.17 271.755 434.342 272.776 432.984C273.806 431.617 275.201 430.934 276.96 430.934C278.956 430.934 280.478 431.722 281.526 433.299V425H283.153V446H281.622L281.553 444.031C280.505 445.526 278.965 446.273 276.932 446.273C275.228 446.273 273.852 445.59 272.803 444.223C271.764 442.846 271.245 440.992 271.245 438.658V438.467ZM272.899 438.754C272.899 440.641 273.277 442.131 274.034 443.225C274.79 444.309 275.857 444.852 277.233 444.852C279.247 444.852 280.678 443.963 281.526 442.186V435.24C280.678 433.317 279.257 432.355 277.26 432.355C275.884 432.355 274.813 432.898 274.048 433.982C273.282 435.058 272.899 436.648 272.899 438.754ZM296.798 446C296.633 445.535 296.529 444.847 296.483 443.936C295.909 444.683 295.175 445.262 294.282 445.672C293.398 446.073 292.459 446.273 291.465 446.273C290.044 446.273 288.891 445.877 288.007 445.084C287.132 444.291 286.694 443.288 286.694 442.076C286.694 440.636 287.291 439.497 288.485 438.658C289.688 437.82 291.361 437.4 293.503 437.4H296.469V435.719C296.469 434.661 296.141 433.832 295.485 433.23C294.838 432.62 293.89 432.314 292.641 432.314C291.502 432.314 290.559 432.606 289.811 433.189C289.064 433.773 288.69 434.475 288.69 435.295L287.049 435.281C287.049 434.105 287.596 433.089 288.69 432.232C289.784 431.367 291.128 430.934 292.723 430.934C294.373 430.934 295.672 431.348 296.62 432.178C297.577 432.998 298.069 434.146 298.096 435.623V442.623C298.096 444.054 298.247 445.125 298.548 445.836V446H296.798ZM291.657 444.824C292.751 444.824 293.726 444.56 294.583 444.031C295.449 443.503 296.077 442.796 296.469 441.912V438.658H293.544C291.912 438.676 290.636 438.977 289.715 439.561C288.795 440.135 288.335 440.928 288.335 441.939C288.335 442.769 288.64 443.457 289.251 444.004C289.87 444.551 290.673 444.824 291.657 444.824ZM311.331 442.24C311.331 441.429 311.003 440.777 310.346 440.285C309.699 439.793 308.719 439.41 307.407 439.137C306.094 438.854 305.074 438.535 304.344 438.18C303.624 437.815 303.087 437.373 302.731 436.854C302.385 436.334 302.212 435.705 302.212 434.967C302.212 433.8 302.699 432.839 303.674 432.082C304.65 431.316 305.898 430.934 307.421 430.934C309.07 430.934 310.392 431.344 311.385 432.164C312.388 432.975 312.889 434.037 312.889 435.35H311.249C311.249 434.484 310.884 433.764 310.155 433.189C309.435 432.615 308.523 432.328 307.421 432.328C306.345 432.328 305.479 432.57 304.823 433.053C304.176 433.527 303.852 434.146 303.852 434.912C303.852 435.65 304.121 436.225 304.659 436.635C305.206 437.036 306.195 437.405 307.626 437.742C309.066 438.079 310.141 438.439 310.852 438.822C311.572 439.205 312.105 439.665 312.452 440.203C312.798 440.741 312.971 441.393 312.971 442.158C312.971 443.407 312.465 444.405 311.454 445.152C310.451 445.9 309.139 446.273 307.516 446.273C305.794 446.273 304.395 445.859 303.319 445.029C302.253 444.191 301.719 443.133 301.719 441.857H303.36C303.424 442.814 303.825 443.562 304.563 444.1C305.311 444.628 306.295 444.893 307.516 444.893C308.656 444.893 309.576 444.642 310.278 444.141C310.98 443.639 311.331 443.006 311.331 442.24ZM319.206 427.42V431.207H322.268V432.547H319.206V442.404C319.206 443.225 319.352 443.835 319.643 444.236C319.944 444.637 320.441 444.838 321.133 444.838C321.407 444.838 321.849 444.792 322.46 444.701L322.528 446.041C322.1 446.196 321.516 446.273 320.778 446.273C319.657 446.273 318.841 445.95 318.331 445.303C317.82 444.646 317.565 443.685 317.565 442.418V432.547H314.844V431.207H317.565V427.42H319.206ZM332.495 432.602C332.148 432.538 331.779 432.506 331.387 432.506C330.367 432.506 329.501 432.793 328.79 433.367C328.088 433.932 327.587 434.757 327.286 435.842V446H325.659V431.207H327.258L327.286 433.559C328.152 431.809 329.542 430.934 331.456 430.934C331.911 430.934 332.271 430.993 332.536 431.111L332.495 432.602ZM343.883 446C343.719 445.535 343.615 444.847 343.569 443.936C342.995 444.683 342.261 445.262 341.368 445.672C340.484 446.073 339.545 446.273 338.551 446.273C337.13 446.273 335.977 445.877 335.092 445.084C334.217 444.291 333.78 443.288 333.78 442.076C333.78 440.636 334.377 439.497 335.571 438.658C336.774 437.82 338.447 437.4 340.589 437.4H343.555V435.719C343.555 434.661 343.227 433.832 342.571 433.23C341.924 432.62 340.976 432.314 339.727 432.314C338.588 432.314 337.645 432.606 336.897 433.189C336.15 433.773 335.776 434.475 335.776 435.295L334.135 435.281C334.135 434.105 334.682 433.089 335.776 432.232C336.87 431.367 338.214 430.934 339.809 430.934C341.459 430.934 342.758 431.348 343.706 432.178C344.663 432.998 345.155 434.146 345.182 435.623V442.623C345.182 444.054 345.333 445.125 345.633 445.836V446H343.883ZM338.743 444.824C339.837 444.824 340.812 444.56 341.669 444.031C342.535 443.503 343.163 442.796 343.555 441.912V438.658H340.63C338.998 438.676 337.722 438.977 336.801 439.561C335.881 440.135 335.421 440.928 335.421 441.939C335.421 442.769 335.726 443.457 336.337 444.004C336.956 444.551 337.758 444.824 338.743 444.824ZM356.393 432.602C356.047 432.538 355.678 432.506 355.286 432.506C354.265 432.506 353.399 432.793 352.688 433.367C351.986 433.932 351.485 434.757 351.184 435.842V446H349.557V431.207H351.157L351.184 433.559C352.05 431.809 353.44 430.934 355.354 430.934C355.81 430.934 356.17 430.993 356.434 431.111L356.393 432.602ZM387.268 446C387.104 445.535 386.999 444.847 386.953 443.936C386.379 444.683 385.645 445.262 384.752 445.672C383.868 446.073 382.929 446.273 381.936 446.273C380.514 446.273 379.361 445.877 378.477 445.084C377.602 444.291 377.164 443.288 377.164 442.076C377.164 440.636 377.761 439.497 378.955 438.658C380.158 437.82 381.831 437.4 383.973 437.4H386.939V435.719C386.939 434.661 386.611 433.832 385.955 433.23C385.308 432.62 384.36 432.314 383.111 432.314C381.972 432.314 381.029 432.606 380.281 433.189C379.534 433.773 379.16 434.475 379.16 435.295L377.52 435.281C377.52 434.105 378.066 433.089 379.16 432.232C380.254 431.367 381.598 430.934 383.193 430.934C384.843 430.934 386.142 431.348 387.09 432.178C388.047 432.998 388.539 434.146 388.566 435.623V442.623C388.566 444.054 388.717 445.125 389.018 445.836V446H387.268ZM382.127 444.824C383.221 444.824 384.196 444.56 385.053 444.031C385.919 443.503 386.548 442.796 386.939 441.912V438.658H384.014C382.382 438.676 381.106 438.977 380.186 439.561C379.265 440.135 378.805 440.928 378.805 441.939C378.805 442.769 379.11 443.457 379.721 444.004C380.34 444.551 381.143 444.824 382.127 444.824ZM401.801 442.24C401.801 441.429 401.473 440.777 400.816 440.285C400.169 439.793 399.189 439.41 397.877 439.137C396.564 438.854 395.544 438.535 394.814 438.18C394.094 437.815 393.557 437.373 393.201 436.854C392.855 436.334 392.682 435.705 392.682 434.967C392.682 433.8 393.169 432.839 394.145 432.082C395.12 431.316 396.368 430.934 397.891 430.934C399.54 430.934 400.862 431.344 401.855 432.164C402.858 432.975 403.359 434.037 403.359 435.35H401.719C401.719 434.484 401.354 433.764 400.625 433.189C399.905 432.615 398.993 432.328 397.891 432.328C396.815 432.328 395.949 432.57 395.293 433.053C394.646 433.527 394.322 434.146 394.322 434.912C394.322 435.65 394.591 436.225 395.129 436.635C395.676 437.036 396.665 437.405 398.096 437.742C399.536 438.079 400.611 438.439 401.322 438.822C402.042 439.205 402.576 439.665 402.922 440.203C403.268 440.741 403.441 441.393 403.441 442.158C403.441 443.407 402.936 444.405 401.924 445.152C400.921 445.9 399.609 446.273 397.986 446.273C396.264 446.273 394.865 445.859 393.789 445.029C392.723 444.191 392.189 443.133 392.189 441.857H393.83C393.894 442.814 394.295 443.562 395.033 444.1C395.781 444.628 396.765 444.893 397.986 444.893C399.126 444.893 400.046 444.642 400.748 444.141C401.45 443.639 401.801 443.006 401.801 442.24ZM114.965 479H113.324V464.207H114.965V479ZM113.037 459.928C113.037 459.618 113.137 459.358 113.338 459.148C113.538 458.93 113.812 458.82 114.158 458.82C114.505 458.82 114.778 458.93 114.979 459.148C115.188 459.358 115.293 459.618 115.293 459.928C115.293 460.238 115.188 460.497 114.979 460.707C114.778 460.917 114.505 461.021 114.158 461.021C113.812 461.021 113.538 460.917 113.338 460.707C113.137 460.497 113.037 460.238 113.037 459.928ZM120.98 464.207L121.035 466.736C121.591 465.825 122.284 465.132 123.113 464.658C123.943 464.175 124.859 463.934 125.861 463.934C127.447 463.934 128.628 464.38 129.402 465.273C130.177 466.167 130.569 467.507 130.578 469.293V479H128.951V469.279C128.942 467.958 128.66 466.973 128.104 466.326C127.557 465.679 126.677 465.355 125.465 465.355C124.453 465.355 123.555 465.674 122.771 466.312C121.997 466.941 121.423 467.794 121.049 468.869V479H119.422V464.207H120.98ZM135.992 479V465.547H133.545V464.207H135.992V462.416C135.992 460.903 136.375 459.741 137.141 458.93C137.915 458.118 138.991 457.713 140.367 457.713C140.987 457.713 141.566 457.79 142.104 457.945L141.98 459.312C141.525 459.203 141.028 459.148 140.49 459.148C139.588 459.148 138.886 459.431 138.385 459.996C137.883 460.552 137.633 461.345 137.633 462.375V464.207H141.16V465.547H137.633V479H135.992ZM143.184 471.385C143.184 469.963 143.457 468.682 144.004 467.543C144.56 466.404 145.339 465.52 146.342 464.891C147.354 464.253 148.497 463.934 149.773 463.934C151.742 463.934 153.337 464.626 154.559 466.012C155.78 467.388 156.391 469.215 156.391 471.494V471.836C156.391 473.267 156.113 474.557 155.557 475.705C155.01 476.844 154.235 477.724 153.232 478.344C152.23 478.964 151.086 479.273 149.801 479.273C147.841 479.273 146.246 478.585 145.016 477.209C143.794 475.824 143.184 473.992 143.184 471.713V471.385ZM144.824 471.836C144.824 473.604 145.28 475.058 146.191 476.197C147.112 477.327 148.315 477.893 149.801 477.893C151.277 477.893 152.471 477.327 153.383 476.197C154.303 475.058 154.764 473.559 154.764 471.699V471.385C154.764 470.255 154.554 469.22 154.135 468.281C153.715 467.342 153.128 466.618 152.371 466.107C151.615 465.588 150.749 465.328 149.773 465.328C148.315 465.328 147.126 465.902 146.205 467.051C145.285 468.19 144.824 469.685 144.824 471.535V471.836ZM166.617 465.602C166.271 465.538 165.902 465.506 165.51 465.506C164.489 465.506 163.623 465.793 162.912 466.367C162.21 466.932 161.709 467.757 161.408 468.842V479H159.781V464.207H161.381L161.408 466.559C162.274 464.809 163.664 463.934 165.578 463.934C166.034 463.934 166.394 463.993 166.658 464.111L166.617 465.602ZM170.705 464.207L170.76 466.613C171.307 465.72 171.99 465.05 172.811 464.604C173.631 464.157 174.542 463.934 175.545 463.934C177.878 463.934 179.359 464.891 179.988 466.805C180.517 465.884 181.223 465.178 182.107 464.686C182.992 464.184 183.967 463.934 185.033 463.934C188.205 463.934 189.823 465.665 189.887 469.129V479H188.246V469.252C188.237 467.93 187.95 466.951 187.385 466.312C186.829 465.674 185.917 465.355 184.65 465.355C183.475 465.374 182.481 465.757 181.67 466.504C180.859 467.242 180.408 468.145 180.316 469.211V479H178.676V469.129C178.667 467.862 178.366 466.919 177.773 466.299C177.19 465.67 176.288 465.355 175.066 465.355C174.036 465.355 173.152 465.652 172.414 466.244C171.676 466.827 171.129 467.698 170.773 468.855V479H169.133V464.207H170.705ZM203.381 479C203.217 478.535 203.112 477.847 203.066 476.936C202.492 477.683 201.758 478.262 200.865 478.672C199.981 479.073 199.042 479.273 198.049 479.273C196.627 479.273 195.474 478.877 194.59 478.084C193.715 477.291 193.277 476.288 193.277 475.076C193.277 473.636 193.874 472.497 195.068 471.658C196.271 470.82 197.944 470.4 200.086 470.4H203.053V468.719C203.053 467.661 202.725 466.832 202.068 466.23C201.421 465.62 200.473 465.314 199.225 465.314C198.085 465.314 197.142 465.606 196.395 466.189C195.647 466.773 195.273 467.475 195.273 468.295L193.633 468.281C193.633 467.105 194.18 466.089 195.273 465.232C196.367 464.367 197.712 463.934 199.307 463.934C200.956 463.934 202.255 464.348 203.203 465.178C204.16 465.998 204.652 467.146 204.68 468.623V475.623C204.68 477.054 204.83 478.125 205.131 478.836V479H203.381ZM198.24 477.824C199.334 477.824 200.309 477.56 201.166 477.031C202.032 476.503 202.661 475.796 203.053 474.912V471.658H200.127C198.495 471.676 197.219 471.977 196.299 472.561C195.378 473.135 194.918 473.928 194.918 474.939C194.918 475.769 195.223 476.457 195.834 477.004C196.454 477.551 197.256 477.824 198.24 477.824ZM214.523 477.893C215.663 477.893 216.615 477.574 217.381 476.936C218.156 476.288 218.575 475.454 218.639 474.434H220.211C220.165 475.336 219.883 476.161 219.363 476.908C218.844 477.646 218.151 478.225 217.285 478.645C216.428 479.064 215.508 479.273 214.523 479.273C212.582 479.273 211.042 478.599 209.902 477.25C208.772 475.901 208.207 474.087 208.207 471.809V471.316C208.207 469.858 208.462 468.568 208.973 467.447C209.483 466.326 210.212 465.46 211.16 464.85C212.117 464.239 213.234 463.934 214.51 463.934C216.132 463.934 217.467 464.417 218.516 465.383C219.573 466.349 220.138 467.62 220.211 469.197H218.639C218.566 468.04 218.146 467.105 217.381 466.395C216.624 465.684 215.667 465.328 214.51 465.328C213.033 465.328 211.885 465.861 211.064 466.928C210.253 467.994 209.848 469.489 209.848 471.412V471.891C209.848 473.777 210.253 475.249 211.064 476.307C211.885 477.364 213.038 477.893 214.523 477.893ZM214.975 479.123L214.811 479.998C216.314 480.189 217.066 480.969 217.066 482.336C217.066 483.174 216.706 483.84 215.986 484.332C215.266 484.824 214.286 485.07 213.047 485.07L212.951 484.004C213.762 484.004 214.423 483.854 214.934 483.553C215.453 483.261 215.713 482.865 215.713 482.363C215.713 481.835 215.512 481.47 215.111 481.27C214.719 481.069 214.118 480.932 213.307 480.859L213.703 479.123H214.975ZM222.59 471.385C222.59 469.963 222.863 468.682 223.41 467.543C223.966 466.404 224.745 465.52 225.748 464.891C226.76 464.253 227.904 463.934 229.18 463.934C231.148 463.934 232.743 464.626 233.965 466.012C235.186 467.388 235.797 469.215 235.797 471.494V471.836C235.797 473.267 235.519 474.557 234.963 475.705C234.416 476.844 233.641 477.724 232.639 478.344C231.636 478.964 230.492 479.273 229.207 479.273C227.247 479.273 225.652 478.585 224.422 477.209C223.201 475.824 222.59 473.992 222.59 471.713V471.385ZM224.23 471.836C224.23 473.604 224.686 475.058 225.598 476.197C226.518 477.327 227.721 477.893 229.207 477.893C230.684 477.893 231.878 477.327 232.789 476.197C233.71 475.058 234.17 473.559 234.17 471.699V471.385C234.17 470.255 233.96 469.22 233.541 468.281C233.122 467.342 232.534 466.618 231.777 466.107C231.021 465.588 230.155 465.328 229.18 465.328C227.721 465.328 226.532 465.902 225.611 467.051C224.691 468.19 224.23 469.685 224.23 471.535V471.836ZM233.828 458.588C233.828 459.463 233.568 460.169 233.049 460.707C232.538 461.236 231.91 461.5 231.162 461.5C230.469 461.5 229.79 461.249 229.125 460.748C228.469 460.247 227.881 459.996 227.361 459.996C226.933 459.996 226.573 460.137 226.281 460.42C225.999 460.702 225.857 461.099 225.857 461.609L224.627 461.568C224.627 460.73 224.873 460.037 225.365 459.49C225.867 458.943 226.509 458.67 227.293 458.67C227.73 458.67 228.104 458.747 228.414 458.902C228.724 459.057 229.016 459.23 229.289 459.422C229.562 459.613 229.836 459.786 230.109 459.941C230.392 460.096 230.72 460.174 231.094 460.174C231.513 460.174 231.868 460.023 232.16 459.723C232.461 459.422 232.611 459.016 232.611 458.506L233.828 458.588ZM244.916 479.273C243.658 479.273 242.519 478.964 241.498 478.344C240.486 477.724 239.698 476.863 239.133 475.76C238.568 474.648 238.285 473.404 238.285 472.027V471.439C238.285 470.018 238.559 468.737 239.105 467.598C239.661 466.458 240.432 465.565 241.416 464.918C242.4 464.262 243.467 463.934 244.615 463.934C246.411 463.934 247.833 464.549 248.881 465.779C249.938 467.001 250.467 468.673 250.467 470.797V471.713H239.912V472.027C239.912 473.704 240.391 475.104 241.348 476.225C242.314 477.337 243.526 477.893 244.984 477.893C245.859 477.893 246.63 477.733 247.295 477.414C247.969 477.095 248.58 476.585 249.127 475.883L250.152 476.662C248.949 478.403 247.204 479.273 244.916 479.273ZM244.615 465.328C243.385 465.328 242.346 465.779 241.498 466.682C240.66 467.584 240.149 468.796 239.967 470.318H248.84V470.141C248.794 468.719 248.389 467.561 247.623 466.668C246.857 465.775 245.855 465.328 244.615 465.328ZM262.512 475.24C262.512 474.429 262.184 473.777 261.527 473.285C260.88 472.793 259.9 472.41 258.588 472.137C257.275 471.854 256.255 471.535 255.525 471.18C254.805 470.815 254.268 470.373 253.912 469.854C253.566 469.334 253.393 468.705 253.393 467.967C253.393 466.8 253.88 465.839 254.855 465.082C255.831 464.316 257.079 463.934 258.602 463.934C260.251 463.934 261.573 464.344 262.566 465.164C263.569 465.975 264.07 467.037 264.07 468.35H262.43C262.43 467.484 262.065 466.764 261.336 466.189C260.616 465.615 259.704 465.328 258.602 465.328C257.526 465.328 256.66 465.57 256.004 466.053C255.357 466.527 255.033 467.146 255.033 467.912C255.033 468.65 255.302 469.225 255.84 469.635C256.387 470.036 257.376 470.405 258.807 470.742C260.247 471.079 261.322 471.439 262.033 471.822C262.753 472.205 263.286 472.665 263.633 473.203C263.979 473.741 264.152 474.393 264.152 475.158C264.152 476.407 263.646 477.405 262.635 478.152C261.632 478.9 260.32 479.273 258.697 479.273C256.975 479.273 255.576 478.859 254.5 478.029C253.434 477.191 252.9 476.133 252.9 474.857H254.541C254.605 475.814 255.006 476.562 255.744 477.1C256.492 477.628 257.476 477.893 258.697 477.893C259.837 477.893 260.757 477.642 261.459 477.141C262.161 476.639 262.512 476.006 262.512 475.24ZM283.936 479.273C282.678 479.273 281.538 478.964 280.518 478.344C279.506 477.724 278.717 476.863 278.152 475.76C277.587 474.648 277.305 473.404 277.305 472.027V471.439C277.305 470.018 277.578 468.737 278.125 467.598C278.681 466.458 279.451 465.565 280.436 464.918C281.42 464.262 282.486 463.934 283.635 463.934C285.43 463.934 286.852 464.549 287.9 465.779C288.958 467.001 289.486 468.673 289.486 470.797V471.713H278.932V472.027C278.932 473.704 279.41 475.104 280.367 476.225C281.333 477.337 282.546 477.893 284.004 477.893C284.879 477.893 285.649 477.733 286.314 477.414C286.989 477.095 287.6 476.585 288.146 475.883L289.172 476.662C287.969 478.403 286.223 479.273 283.936 479.273ZM283.635 465.328C282.404 465.328 281.365 465.779 280.518 466.682C279.679 467.584 279.169 468.796 278.986 470.318H287.859V470.141C287.814 468.719 287.408 467.561 286.643 466.668C285.877 465.775 284.874 465.328 283.635 465.328ZM301.531 475.24C301.531 474.429 301.203 473.777 300.547 473.285C299.9 472.793 298.92 472.41 297.607 472.137C296.295 471.854 295.274 471.535 294.545 471.18C293.825 470.815 293.287 470.373 292.932 469.854C292.585 469.334 292.412 468.705 292.412 467.967C292.412 466.8 292.9 465.839 293.875 465.082C294.85 464.316 296.099 463.934 297.621 463.934C299.271 463.934 300.592 464.344 301.586 465.164C302.589 465.975 303.09 467.037 303.09 468.35H301.449C301.449 467.484 301.085 466.764 300.355 466.189C299.635 465.615 298.724 465.328 297.621 465.328C296.546 465.328 295.68 465.57 295.023 466.053C294.376 466.527 294.053 467.146 294.053 467.912C294.053 468.65 294.322 469.225 294.859 469.635C295.406 470.036 296.395 470.405 297.826 470.742C299.266 471.079 300.342 471.439 301.053 471.822C301.773 472.205 302.306 472.665 302.652 473.203C302.999 473.741 303.172 474.393 303.172 475.158C303.172 476.407 302.666 477.405 301.654 478.152C300.652 478.9 299.339 479.273 297.717 479.273C295.994 479.273 294.595 478.859 293.52 478.029C292.453 477.191 291.92 476.133 291.92 474.857H293.561C293.624 475.814 294.025 476.562 294.764 477.1C295.511 477.628 296.495 477.893 297.717 477.893C298.856 477.893 299.777 477.642 300.479 477.141C301.18 476.639 301.531 476.006 301.531 475.24ZM315.723 475.24C315.723 474.429 315.395 473.777 314.738 473.285C314.091 472.793 313.111 472.41 311.799 472.137C310.486 471.854 309.465 471.535 308.736 471.18C308.016 470.815 307.479 470.373 307.123 469.854C306.777 469.334 306.604 468.705 306.604 467.967C306.604 466.8 307.091 465.839 308.066 465.082C309.042 464.316 310.29 463.934 311.812 463.934C313.462 463.934 314.784 464.344 315.777 465.164C316.78 465.975 317.281 467.037 317.281 468.35H315.641C315.641 467.484 315.276 466.764 314.547 466.189C313.827 465.615 312.915 465.328 311.812 465.328C310.737 465.328 309.871 465.57 309.215 466.053C308.568 466.527 308.244 467.146 308.244 467.912C308.244 468.65 308.513 469.225 309.051 469.635C309.598 470.036 310.587 470.405 312.018 470.742C313.458 471.079 314.533 471.439 315.244 471.822C315.964 472.205 316.497 472.665 316.844 473.203C317.19 473.741 317.363 474.393 317.363 475.158C317.363 476.407 316.857 477.405 315.846 478.152C314.843 478.9 313.531 479.273 311.908 479.273C310.186 479.273 308.786 478.859 307.711 478.029C306.645 477.191 306.111 476.133 306.111 474.857H307.752C307.816 475.814 308.217 476.562 308.955 477.1C309.702 477.628 310.687 477.893 311.908 477.893C313.048 477.893 313.968 477.642 314.67 477.141C315.372 476.639 315.723 476.006 315.723 475.24ZM326.783 479.273C325.525 479.273 324.386 478.964 323.365 478.344C322.354 477.724 321.565 476.863 321 475.76C320.435 474.648 320.152 473.404 320.152 472.027V471.439C320.152 470.018 320.426 468.737 320.973 467.598C321.529 466.458 322.299 465.565 323.283 464.918C324.268 464.262 325.334 463.934 326.482 463.934C328.278 463.934 329.7 464.549 330.748 465.779C331.805 467.001 332.334 468.673 332.334 470.797V471.713H321.779V472.027C321.779 473.704 322.258 475.104 323.215 476.225C324.181 477.337 325.393 477.893 326.852 477.893C327.727 477.893 328.497 477.733 329.162 477.414C329.837 477.095 330.447 476.585 330.994 475.883L332.02 476.662C330.816 478.403 329.071 479.273 326.783 479.273ZM326.482 465.328C325.252 465.328 324.213 465.779 323.365 466.682C322.527 467.584 322.016 468.796 321.834 470.318H330.707V470.141C330.661 468.719 330.256 467.561 329.49 466.668C328.725 465.775 327.722 465.328 326.482 465.328ZM337.078 464.207L337.133 466.736C337.689 465.825 338.382 465.132 339.211 464.658C340.04 464.175 340.956 463.934 341.959 463.934C343.545 463.934 344.725 464.38 345.5 465.273C346.275 466.167 346.667 467.507 346.676 469.293V479H345.049V469.279C345.04 467.958 344.757 466.973 344.201 466.326C343.654 465.679 342.775 465.355 341.562 465.355C340.551 465.355 339.653 465.674 338.869 466.312C338.094 466.941 337.52 467.794 337.146 468.869V479H335.52V464.207H337.078ZM356.383 477.893C357.522 477.893 358.475 477.574 359.24 476.936C360.015 476.288 360.434 475.454 360.498 474.434H362.07C362.025 475.336 361.742 476.161 361.223 476.908C360.703 477.646 360.01 478.225 359.145 478.645C358.288 479.064 357.367 479.273 356.383 479.273C354.441 479.273 352.901 478.599 351.762 477.25C350.632 475.901 350.066 474.087 350.066 471.809V471.316C350.066 469.858 350.322 468.568 350.832 467.447C351.342 466.326 352.072 465.46 353.02 464.85C353.977 464.239 355.093 463.934 356.369 463.934C357.992 463.934 359.327 464.417 360.375 465.383C361.432 466.349 361.997 467.62 362.07 469.197H360.498C360.425 468.04 360.006 467.105 359.24 466.395C358.484 465.684 357.527 465.328 356.369 465.328C354.893 465.328 353.744 465.861 352.924 466.928C352.113 467.994 351.707 469.489 351.707 471.412V471.891C351.707 473.777 352.113 475.249 352.924 476.307C353.744 477.364 354.897 477.893 356.383 477.893ZM367.184 479H365.543V464.207H367.184V479ZM365.256 459.928C365.256 459.618 365.356 459.358 365.557 459.148C365.757 458.93 366.031 458.82 366.377 458.82C366.723 458.82 366.997 458.93 367.197 459.148C367.407 459.358 367.512 459.618 367.512 459.928C367.512 460.238 367.407 460.497 367.197 460.707C366.997 460.917 366.723 461.021 366.377 461.021C366.031 461.021 365.757 460.917 365.557 460.707C365.356 460.497 365.256 460.238 365.256 459.928ZM380.979 479C380.814 478.535 380.71 477.847 380.664 476.936C380.09 477.683 379.356 478.262 378.463 478.672C377.579 479.073 376.64 479.273 375.646 479.273C374.225 479.273 373.072 478.877 372.188 478.084C371.312 477.291 370.875 476.288 370.875 475.076C370.875 473.636 371.472 472.497 372.666 471.658C373.869 470.82 375.542 470.4 377.684 470.4H380.65V468.719C380.65 467.661 380.322 466.832 379.666 466.23C379.019 465.62 378.071 465.314 376.822 465.314C375.683 465.314 374.74 465.606 373.992 466.189C373.245 466.773 372.871 467.475 372.871 468.295L371.23 468.281C371.23 467.105 371.777 466.089 372.871 465.232C373.965 464.367 375.309 463.934 376.904 463.934C378.554 463.934 379.853 464.348 380.801 465.178C381.758 465.998 382.25 467.146 382.277 468.623V475.623C382.277 477.054 382.428 478.125 382.729 478.836V479H380.979ZM375.838 477.824C376.932 477.824 377.907 477.56 378.764 477.031C379.63 476.503 380.258 475.796 380.65 474.912V471.658H377.725C376.093 471.676 374.817 471.977 373.896 472.561C372.976 473.135 372.516 473.928 372.516 474.939C372.516 475.769 372.821 476.457 373.432 477.004C374.051 477.551 374.854 477.824 375.838 477.824ZM388.484 479H386.844V464.207H388.484V479ZM386.557 459.928C386.557 459.618 386.657 459.358 386.857 459.148C387.058 458.93 387.331 458.82 387.678 458.82C388.024 458.82 388.298 458.93 388.498 459.148C388.708 459.358 388.812 459.618 388.812 459.928C388.812 460.238 388.708 460.497 388.498 460.707C388.298 460.917 388.024 461.021 387.678 461.021C387.331 461.021 387.058 460.917 386.857 460.707C386.657 460.497 386.557 460.238 386.557 459.928ZM401.801 475.24C401.801 474.429 401.473 473.777 400.816 473.285C400.169 472.793 399.189 472.41 397.877 472.137C396.564 471.854 395.544 471.535 394.814 471.18C394.094 470.815 393.557 470.373 393.201 469.854C392.855 469.334 392.682 468.705 392.682 467.967C392.682 466.8 393.169 465.839 394.145 465.082C395.12 464.316 396.368 463.934 397.891 463.934C399.54 463.934 400.862 464.344 401.855 465.164C402.858 465.975 403.359 467.037 403.359 468.35H401.719C401.719 467.484 401.354 466.764 400.625 466.189C399.905 465.615 398.993 465.328 397.891 465.328C396.815 465.328 395.949 465.57 395.293 466.053C394.646 466.527 394.322 467.146 394.322 467.912C394.322 468.65 394.591 469.225 395.129 469.635C395.676 470.036 396.665 470.405 398.096 470.742C399.536 471.079 400.611 471.439 401.322 471.822C402.042 472.205 402.576 472.665 402.922 473.203C403.268 473.741 403.441 474.393 403.441 475.158C403.441 476.407 402.936 477.405 401.924 478.152C400.921 478.9 399.609 479.273 397.986 479.273C396.264 479.273 394.865 478.859 393.789 478.029C392.723 477.191 392.189 476.133 392.189 474.857H393.83C393.894 475.814 394.295 476.562 395.033 477.1C395.781 477.628 396.765 477.893 397.986 477.893C399.126 477.893 400.046 477.642 400.748 477.141C401.45 476.639 401.801 476.006 401.801 475.24ZM112.477 504.467C112.477 502.17 112.987 500.342 114.008 498.984C115.038 497.617 116.432 496.934 118.191 496.934C120.188 496.934 121.71 497.722 122.758 499.299V491H124.385V512H122.854L122.785 510.031C121.737 511.526 120.197 512.273 118.164 512.273C116.46 512.273 115.083 511.59 114.035 510.223C112.996 508.846 112.477 506.992 112.477 504.658V504.467ZM114.131 504.754C114.131 506.641 114.509 508.131 115.266 509.225C116.022 510.309 117.089 510.852 118.465 510.852C120.479 510.852 121.91 509.963 122.758 508.186V501.24C121.91 499.317 120.488 498.355 118.492 498.355C117.116 498.355 116.045 498.898 115.279 499.982C114.514 501.058 114.131 502.648 114.131 504.754ZM127.789 504.385C127.789 502.963 128.062 501.682 128.609 500.543C129.165 499.404 129.945 498.52 130.947 497.891C131.959 497.253 133.103 496.934 134.379 496.934C136.348 496.934 137.943 497.626 139.164 499.012C140.385 500.388 140.996 502.215 140.996 504.494V504.836C140.996 506.267 140.718 507.557 140.162 508.705C139.615 509.844 138.84 510.724 137.838 511.344C136.835 511.964 135.691 512.273 134.406 512.273C132.447 512.273 130.852 511.585 129.621 510.209C128.4 508.824 127.789 506.992 127.789 504.713V504.385ZM129.43 504.836C129.43 506.604 129.885 508.058 130.797 509.197C131.717 510.327 132.921 510.893 134.406 510.893C135.883 510.893 137.077 510.327 137.988 509.197C138.909 508.058 139.369 506.559 139.369 504.699V504.385C139.369 503.255 139.16 502.22 138.74 501.281C138.321 500.342 137.733 499.618 136.977 499.107C136.22 498.588 135.354 498.328 134.379 498.328C132.921 498.328 131.731 498.902 130.811 500.051C129.89 501.19 129.43 502.685 129.43 504.535V504.836ZM160.055 508.24C160.055 507.429 159.727 506.777 159.07 506.285C158.423 505.793 157.443 505.41 156.131 505.137C154.818 504.854 153.798 504.535 153.068 504.18C152.348 503.815 151.811 503.373 151.455 502.854C151.109 502.334 150.936 501.705 150.936 500.967C150.936 499.8 151.423 498.839 152.398 498.082C153.374 497.316 154.622 496.934 156.145 496.934C157.794 496.934 159.116 497.344 160.109 498.164C161.112 498.975 161.613 500.037 161.613 501.35H159.973C159.973 500.484 159.608 499.764 158.879 499.189C158.159 498.615 157.247 498.328 156.145 498.328C155.069 498.328 154.203 498.57 153.547 499.053C152.9 499.527 152.576 500.146 152.576 500.912C152.576 501.65 152.845 502.225 153.383 502.635C153.93 503.036 154.919 503.405 156.35 503.742C157.79 504.079 158.865 504.439 159.576 504.822C160.296 505.205 160.829 505.665 161.176 506.203C161.522 506.741 161.695 507.393 161.695 508.158C161.695 509.407 161.189 510.405 160.178 511.152C159.175 511.9 157.863 512.273 156.24 512.273C154.518 512.273 153.118 511.859 152.043 511.029C150.977 510.191 150.443 509.133 150.443 507.857H152.084C152.148 508.814 152.549 509.562 153.287 510.1C154.035 510.628 155.019 510.893 156.24 510.893C157.38 510.893 158.3 510.642 159.002 510.141C159.704 509.639 160.055 509.006 160.055 508.24ZM171.115 512.273C169.857 512.273 168.718 511.964 167.697 511.344C166.686 510.724 165.897 509.863 165.332 508.76C164.767 507.648 164.484 506.404 164.484 505.027V504.439C164.484 503.018 164.758 501.737 165.305 500.598C165.861 499.458 166.631 498.565 167.615 497.918C168.6 497.262 169.666 496.934 170.814 496.934C172.61 496.934 174.032 497.549 175.08 498.779C176.137 500.001 176.666 501.673 176.666 503.797V504.713H166.111V505.027C166.111 506.704 166.59 508.104 167.547 509.225C168.513 510.337 169.725 510.893 171.184 510.893C172.059 510.893 172.829 510.733 173.494 510.414C174.169 510.095 174.779 509.585 175.326 508.883L176.352 509.662C175.148 511.403 173.403 512.273 171.115 512.273ZM170.814 498.328C169.584 498.328 168.545 498.779 167.697 499.682C166.859 500.584 166.348 501.796 166.166 503.318H175.039V503.141C174.993 501.719 174.588 500.561 173.822 499.668C173.057 498.775 172.054 498.328 170.814 498.328ZM189.367 510.127C188.383 511.558 186.811 512.273 184.65 512.273C183.074 512.273 181.875 511.818 181.055 510.906C180.234 509.986 179.815 508.628 179.797 506.832V497.207H181.424V506.627C181.424 509.443 182.563 510.852 184.842 510.852C187.212 510.852 188.711 509.872 189.34 507.912V497.207H190.98V512H189.395L189.367 510.127ZM207.783 512.273C206.525 512.273 205.386 511.964 204.365 511.344C203.354 510.724 202.565 509.863 202 508.76C201.435 507.648 201.152 506.404 201.152 505.027V504.439C201.152 503.018 201.426 501.737 201.973 500.598C202.529 499.458 203.299 498.565 204.283 497.918C205.268 497.262 206.334 496.934 207.482 496.934C209.278 496.934 210.7 497.549 211.748 498.779C212.805 500.001 213.334 501.673 213.334 503.797V504.713H202.779V505.027C202.779 506.704 203.258 508.104 204.215 509.225C205.181 510.337 206.393 510.893 207.852 510.893C208.727 510.893 209.497 510.733 210.162 510.414C210.837 510.095 211.447 509.585 211.994 508.883L213.02 509.662C211.816 511.403 210.071 512.273 207.783 512.273ZM207.482 498.328C206.252 498.328 205.213 498.779 204.365 499.682C203.527 500.584 203.016 501.796 202.834 503.318H211.707V503.141C211.661 501.719 211.256 500.561 210.49 499.668C209.725 498.775 208.722 498.328 207.482 498.328ZM220.936 509.744L225.434 497.207H227.115L221.592 512H220.266L214.715 497.207H216.396L220.936 509.744ZM235.346 512.273C234.088 512.273 232.949 511.964 231.928 511.344C230.916 510.724 230.128 509.863 229.562 508.76C228.997 507.648 228.715 506.404 228.715 505.027V504.439C228.715 503.018 228.988 501.737 229.535 500.598C230.091 499.458 230.861 498.565 231.846 497.918C232.83 497.262 233.896 496.934 235.045 496.934C236.84 496.934 238.262 497.549 239.311 498.779C240.368 500.001 240.896 501.673 240.896 503.797V504.713H230.342V505.027C230.342 506.704 230.82 508.104 231.777 509.225C232.743 510.337 233.956 510.893 235.414 510.893C236.289 510.893 237.059 510.733 237.725 510.414C238.399 510.095 239.01 509.585 239.557 508.883L240.582 509.662C239.379 511.403 237.633 512.273 235.346 512.273ZM235.045 498.328C233.814 498.328 232.775 498.779 231.928 499.682C231.089 500.584 230.579 501.796 230.396 503.318H239.27V503.141C239.224 501.719 238.818 500.561 238.053 499.668C237.287 498.775 236.285 498.328 235.045 498.328ZM245.641 497.207L245.695 499.736C246.251 498.825 246.944 498.132 247.773 497.658C248.603 497.175 249.519 496.934 250.521 496.934C252.107 496.934 253.288 497.38 254.062 498.273C254.837 499.167 255.229 500.507 255.238 502.293V512H253.611V502.279C253.602 500.958 253.32 499.973 252.764 499.326C252.217 498.679 251.337 498.355 250.125 498.355C249.113 498.355 248.215 498.674 247.432 499.312C246.657 499.941 246.083 500.794 245.709 501.869V512H244.082V497.207H245.641ZM262.02 493.42V497.207H265.082V498.547H262.02V508.404C262.02 509.225 262.165 509.835 262.457 510.236C262.758 510.637 263.255 510.838 263.947 510.838C264.221 510.838 264.663 510.792 265.273 510.701L265.342 512.041C264.913 512.196 264.33 512.273 263.592 512.273C262.471 512.273 261.655 511.95 261.145 511.303C260.634 510.646 260.379 509.685 260.379 508.418V498.547H257.658V497.207H260.379V493.42H262.02ZM267.297 504.385C267.297 502.963 267.57 501.682 268.117 500.543C268.673 499.404 269.452 498.52 270.455 497.891C271.467 497.253 272.611 496.934 273.887 496.934C275.855 496.934 277.451 497.626 278.672 499.012C279.893 500.388 280.504 502.215 280.504 504.494V504.836C280.504 506.267 280.226 507.557 279.67 508.705C279.123 509.844 278.348 510.724 277.346 511.344C276.343 511.964 275.199 512.273 273.914 512.273C271.954 512.273 270.359 511.585 269.129 510.209C267.908 508.824 267.297 506.992 267.297 504.713V504.385ZM268.938 504.836C268.938 506.604 269.393 508.058 270.305 509.197C271.225 510.327 272.428 510.893 273.914 510.893C275.391 510.893 276.585 510.327 277.496 509.197C278.417 508.058 278.877 506.559 278.877 504.699V504.385C278.877 503.255 278.667 502.22 278.248 501.281C277.829 500.342 277.241 499.618 276.484 499.107C275.728 498.588 274.862 498.328 273.887 498.328C272.428 498.328 271.239 498.902 270.318 500.051C269.398 501.19 268.938 502.685 268.938 504.535V504.836ZM283.744 511.016C283.744 510.697 283.844 510.428 284.045 510.209C284.255 509.981 284.542 509.867 284.906 509.867C285.271 509.867 285.558 509.981 285.768 510.209C285.977 510.428 286.082 510.697 286.082 511.016C286.082 511.335 285.977 511.599 285.768 511.809C285.558 512.009 285.271 512.109 284.906 512.109C284.542 512.109 284.255 512.009 284.045 511.809C283.844 511.599 283.744 511.335 283.744 511.016Z" fill="#F4F8F9"/>
<path d="M163.1 382.986V390H158.998V370.094H166.764C168.258 370.094 169.571 370.367 170.701 370.914C171.84 371.461 172.715 372.24 173.326 373.252C173.937 374.255 174.242 375.398 174.242 376.684C174.242 378.634 173.572 380.174 172.232 381.305C170.902 382.426 169.056 382.986 166.695 382.986H163.1ZM163.1 379.664H166.764C167.848 379.664 168.673 379.409 169.238 378.898C169.812 378.388 170.1 377.659 170.1 376.711C170.1 375.736 169.812 374.947 169.238 374.346C168.664 373.744 167.871 373.434 166.859 373.416H163.1V379.664ZM185.125 378.912C184.587 378.839 184.113 378.803 183.703 378.803C182.208 378.803 181.229 379.309 180.764 380.32V390H176.812V375.207H180.545L180.654 376.971C181.447 375.613 182.546 374.934 183.949 374.934C184.387 374.934 184.797 374.993 185.18 375.111L185.125 378.912ZM191.209 390H187.244V375.207H191.209V390ZM187.012 371.379C187.012 370.786 187.208 370.299 187.6 369.916C188.001 369.533 188.543 369.342 189.227 369.342C189.901 369.342 190.439 369.533 190.84 369.916C191.241 370.299 191.441 370.786 191.441 371.379C191.441 371.98 191.236 372.473 190.826 372.855C190.425 373.238 189.892 373.43 189.227 373.43C188.561 373.43 188.023 373.238 187.613 372.855C187.212 372.473 187.012 371.98 187.012 371.379ZM198.182 375.207L198.305 376.861C199.353 375.576 200.77 374.934 202.557 374.934C204.462 374.934 205.77 375.686 206.48 377.189C207.52 375.686 209.001 374.934 210.924 374.934C212.528 374.934 213.722 375.403 214.506 376.342C215.29 377.271 215.682 378.675 215.682 380.553V390H211.717V380.566C211.717 379.728 211.553 379.117 211.225 378.734C210.896 378.342 210.318 378.146 209.488 378.146C208.303 378.146 207.483 378.712 207.027 379.842L207.041 390H203.09V380.58C203.09 379.723 202.921 379.104 202.584 378.721C202.247 378.338 201.673 378.146 200.861 378.146C199.74 378.146 198.929 378.611 198.428 379.541V390H194.477V375.207H198.182ZM225.539 390.273C223.37 390.273 221.602 389.608 220.234 388.277C218.876 386.947 218.197 385.174 218.197 382.959V382.576C218.197 381.09 218.484 379.764 219.059 378.598C219.633 377.422 220.444 376.52 221.492 375.891C222.549 375.253 223.753 374.934 225.102 374.934C227.125 374.934 228.715 375.572 229.873 376.848C231.04 378.124 231.623 379.933 231.623 382.275V383.889H222.203C222.331 384.855 222.714 385.63 223.352 386.213C223.999 386.796 224.814 387.088 225.799 387.088C227.321 387.088 228.51 386.536 229.367 385.434L231.309 387.607C230.716 388.446 229.914 389.102 228.902 389.576C227.891 390.041 226.77 390.273 225.539 390.273ZM225.088 378.133C224.304 378.133 223.666 378.397 223.174 378.926C222.691 379.454 222.381 380.211 222.244 381.195H227.74V380.881C227.722 380.006 227.485 379.331 227.029 378.857C226.574 378.374 225.926 378.133 225.088 378.133ZM238.049 390H234.084V375.207H238.049V390ZM233.852 371.379C233.852 370.786 234.048 370.299 234.439 369.916C234.84 369.533 235.383 369.342 236.066 369.342C236.741 369.342 237.279 369.533 237.68 369.916C238.081 370.299 238.281 370.786 238.281 371.379C238.281 371.98 238.076 372.473 237.666 372.855C237.265 373.238 236.732 373.43 236.066 373.43C235.401 373.43 234.863 373.238 234.453 372.855C234.052 372.473 233.852 371.98 233.852 371.379ZM249.629 378.912C249.091 378.839 248.617 378.803 248.207 378.803C246.712 378.803 245.732 379.309 245.268 380.32V390H241.316V375.207H245.049L245.158 376.971C245.951 375.613 247.049 374.934 248.453 374.934C248.891 374.934 249.301 374.993 249.684 375.111L249.629 378.912ZM250.436 382.467C250.436 380.999 250.718 379.691 251.283 378.543C251.848 377.395 252.66 376.506 253.717 375.877C254.783 375.248 256.018 374.934 257.422 374.934C259.418 374.934 261.045 375.544 262.303 376.766C263.57 377.987 264.276 379.646 264.422 381.742L264.449 382.754C264.449 385.023 263.816 386.846 262.549 388.223C261.282 389.59 259.582 390.273 257.449 390.273C255.316 390.273 253.612 389.59 252.336 388.223C251.069 386.855 250.436 384.996 250.436 382.645V382.467ZM254.387 382.754C254.387 384.158 254.651 385.233 255.18 385.98C255.708 386.719 256.465 387.088 257.449 387.088C258.406 387.088 259.154 386.723 259.691 385.994C260.229 385.256 260.498 384.08 260.498 382.467C260.498 381.09 260.229 380.024 259.691 379.268C259.154 378.511 258.397 378.133 257.422 378.133C256.456 378.133 255.708 378.511 255.18 379.268C254.651 380.015 254.387 381.177 254.387 382.754ZM287.172 382.74C287.172 385.019 286.652 386.846 285.613 388.223C284.583 389.59 283.189 390.273 281.43 390.273C279.935 390.273 278.727 389.754 277.807 388.715V395.688H273.855V375.207H277.52L277.656 376.656C278.613 375.508 279.862 374.934 281.402 374.934C283.225 374.934 284.643 375.608 285.654 376.957C286.666 378.306 287.172 380.165 287.172 382.535V382.74ZM283.221 382.453C283.221 381.077 282.975 380.015 282.482 379.268C281.999 378.52 281.293 378.146 280.363 378.146C279.124 378.146 278.271 378.62 277.807 379.568V385.625C278.29 386.6 279.151 387.088 280.391 387.088C282.277 387.088 283.221 385.543 283.221 382.453ZM298.205 390C298.023 389.645 297.891 389.202 297.809 388.674C296.852 389.74 295.607 390.273 294.076 390.273C292.627 390.273 291.424 389.854 290.467 389.016C289.519 388.177 289.045 387.12 289.045 385.844C289.045 384.276 289.624 383.073 290.781 382.234C291.948 381.396 293.63 380.972 295.826 380.963H297.645V380.115C297.645 379.432 297.467 378.885 297.111 378.475C296.765 378.064 296.214 377.859 295.457 377.859C294.792 377.859 294.268 378.019 293.885 378.338C293.511 378.657 293.324 379.094 293.324 379.65H289.373C289.373 378.794 289.637 378.001 290.166 377.271C290.695 376.542 291.442 375.973 292.408 375.562C293.374 375.143 294.459 374.934 295.662 374.934C297.485 374.934 298.93 375.394 299.996 376.314C301.072 377.226 301.609 378.511 301.609 380.17V386.582C301.618 387.986 301.814 389.048 302.197 389.768V390H298.205ZM294.938 387.252C295.521 387.252 296.059 387.124 296.551 386.869C297.043 386.605 297.408 386.254 297.645 385.816V383.273H296.168C294.19 383.273 293.137 383.957 293.01 385.324L292.996 385.557C292.996 386.049 293.169 386.454 293.516 386.773C293.862 387.092 294.336 387.252 294.938 387.252ZM312.656 385.912C312.656 385.429 312.415 385.051 311.932 384.777C311.458 384.495 310.692 384.244 309.635 384.025C306.117 383.287 304.357 381.792 304.357 379.541C304.357 378.229 304.9 377.135 305.984 376.26C307.078 375.376 308.505 374.934 310.264 374.934C312.141 374.934 313.641 375.376 314.762 376.26C315.892 377.144 316.457 378.292 316.457 379.705H312.506C312.506 379.14 312.324 378.675 311.959 378.311C311.594 377.937 311.025 377.75 310.25 377.75C309.585 377.75 309.07 377.9 308.705 378.201C308.34 378.502 308.158 378.885 308.158 379.35C308.158 379.787 308.363 380.143 308.773 380.416C309.193 380.68 309.895 380.913 310.879 381.113C311.863 381.305 312.693 381.523 313.367 381.77C315.454 382.535 316.498 383.861 316.498 385.748C316.498 387.097 315.919 388.191 314.762 389.029C313.604 389.859 312.109 390.273 310.277 390.273C309.038 390.273 307.935 390.055 306.969 389.617C306.012 389.171 305.26 388.564 304.713 387.799C304.166 387.024 303.893 386.19 303.893 385.297H307.639C307.675 385.999 307.935 386.536 308.418 386.91C308.901 387.284 309.548 387.471 310.359 387.471C311.116 387.471 311.686 387.329 312.068 387.047C312.46 386.755 312.656 386.377 312.656 385.912ZM327.066 385.912C327.066 385.429 326.825 385.051 326.342 384.777C325.868 384.495 325.102 384.244 324.045 384.025C320.527 383.287 318.768 381.792 318.768 379.541C318.768 378.229 319.31 377.135 320.395 376.26C321.488 375.376 322.915 374.934 324.674 374.934C326.551 374.934 328.051 375.376 329.172 376.26C330.302 377.144 330.867 378.292 330.867 379.705H326.916C326.916 379.14 326.734 378.675 326.369 378.311C326.005 377.937 325.435 377.75 324.66 377.75C323.995 377.75 323.48 377.9 323.115 378.201C322.751 378.502 322.568 378.885 322.568 379.35C322.568 379.787 322.773 380.143 323.184 380.416C323.603 380.68 324.305 380.913 325.289 381.113C326.273 381.305 327.103 381.523 327.777 381.77C329.865 382.535 330.908 383.861 330.908 385.748C330.908 387.097 330.329 388.191 329.172 389.029C328.014 389.859 326.52 390.273 324.688 390.273C323.448 390.273 322.345 390.055 321.379 389.617C320.422 389.171 319.67 388.564 319.123 387.799C318.576 387.024 318.303 386.19 318.303 385.297H322.049C322.085 385.999 322.345 386.536 322.828 386.91C323.311 387.284 323.958 387.471 324.77 387.471C325.526 387.471 326.096 387.329 326.479 387.047C326.87 386.755 327.066 386.377 327.066 385.912ZM332.85 382.467C332.85 380.999 333.132 379.691 333.697 378.543C334.262 377.395 335.074 376.506 336.131 375.877C337.197 375.248 338.432 374.934 339.836 374.934C341.832 374.934 343.459 375.544 344.717 376.766C345.984 377.987 346.69 379.646 346.836 381.742L346.863 382.754C346.863 385.023 346.23 386.846 344.963 388.223C343.696 389.59 341.996 390.273 339.863 390.273C337.73 390.273 336.026 389.59 334.75 388.223C333.483 386.855 332.85 384.996 332.85 382.645V382.467ZM336.801 382.754C336.801 384.158 337.065 385.233 337.594 385.98C338.122 386.719 338.879 387.088 339.863 387.088C340.82 387.088 341.568 386.723 342.105 385.994C342.643 385.256 342.912 384.08 342.912 382.467C342.912 381.09 342.643 380.024 342.105 379.268C341.568 378.511 340.811 378.133 339.836 378.133C338.87 378.133 338.122 378.511 337.594 379.268C337.065 380.015 336.801 381.177 336.801 382.754Z" fill="white"/>
<path d="M261.333 254.333H270C272.299 254.333 274.503 255.246 276.128 256.872C277.754 258.497 278.667 260.701 278.667 263V323.667C278.667 325.965 277.754 328.17 276.128 329.795C274.503 331.42 272.299 332.333 270 332.333H218C215.702 332.333 213.497 331.42 211.872 329.795C210.247 328.17 209.333 325.965 209.333 323.667V263C209.333 260.701 210.247 258.497 211.872 256.872C213.497 255.246 215.702 254.333 218 254.333H226.667" stroke="#252594" stroke-width="6" stroke-linecap="round" stroke-linejoin="round"/>
<path d="M257 245.667H231C228.607 245.667 226.667 247.607 226.667 250V258.667C226.667 261.06 228.607 263 231 263H257C259.393 263 261.333 261.06 261.333 258.667V250C261.333 247.607 259.393 245.667 257 245.667Z" stroke="#252594" stroke-width="6" stroke-linecap="round" stroke-linejoin="round"/>
</svg>
